<svg version="1.1" xmlns="http://www.w3.org/2000/svg" viewBox="0 0 1234.959976196289 446.7000427246094" width="1234.959976196289" height="446.7000427246094">
  <!-- svg-source:excalidraw -->
  
  <defs>
    <style class="style-fonts">
      @font-face {
        font-family: "Virgil";
        src: url("https://excalidraw.com/Virgil.woff2");
      }
      @font-face {
        font-family: "Cascadia";
        src: url("https://excalidraw.com/Cascadia.woff2");
      }
    </style>
    
  </defs>
  <g stroke-linecap="round" transform="translate(10 53.60002899169922) rotate(0 169.19998168945312 178)"><path d="M32 0 M32 0 C123.55 0.44, 215.42 -0.93, 306.4 0 M306.4 0 C328.47 0.25, 339.26 11.74, 338.4 32 M338.4 32 C334.93 120.91, 337 207, 338.4 324 M338.4 324 C336.7 343.53, 328.16 354.34, 306.4 356 M306.4 356 C200.84 356.69, 94.03 356.17, 32 356 M32 356 C9.08 354.27, 0.86 344.62, 0 324 M0 324 C0.2 247.38, 0.45 172.27, 0 32 M0 32 C-1.32 12.32, 9.83 0.49, 32 0" stroke="#1e1e1e" stroke-width="1.5" fill="none" stroke-dasharray="8 9"></path></g><g stroke-linecap="round" transform="translate(63.999969482421875 97.59998321533203) rotate(0 115.20001220703125 26.000015258789062)"><path d="M13 0 M13 0 C91.72 0.89, 166.9 0.85, 217.4 0 M13 0 C59.74 -1.22, 106.08 -1.7, 217.4 0 M217.4 0 C225.92 -1.29, 229.24 3.66, 230.4 13 M217.4 0 C228.24 0.64, 231.62 5.57, 230.4 13 M230.4 13 C229.56 17.81, 228.37 25.72, 230.4 39 M230.4 13 C231.41 22.32, 230.12 32.23, 230.4 39 M230.4 39 C231.41 47.01, 226.81 52.38, 217.4 52 M230.4 39 C230.56 45.87, 225.26 52.64, 217.4 52 M217.4 52 C166.17 50.58, 113.56 53.2, 13 52 M217.4 52 C171.55 54.02, 125.51 53.74, 13 52 M13 52 C2.86 51.99, 0.29 45.75, 0 39 M13 52 C2.97 50.73, 1.89 48.21, 0 39 M0 39 C1.73 33.68, -0.17 24.45, 0 13 M0 39 C-0.17 33.52, 0.39 25.84, 0 13 M0 13 C-1.14 4.25, 2.6 -1.69, 13 0 M0 13 C-2.09 3.51, 5.43 -1.72, 13 0" stroke="#1e1e1e" stroke-width="1" fill="none"></path></g><g transform="translate(107.34004211425781 111.0999984741211) rotate(0 71.85993957519531 12.5)"><text x="71.85993957519531" y="0" font-family="Virgil, Segoe UI Emoji" font-size="20px" fill="#1e1e1e" text-anchor="middle" style="white-space: pre;" direction="ltr" dominant-baseline="text-before-edge">Log Producer 1</text></g><g stroke-linecap="round" transform="translate(63.999969482421875 185.59998321533203) rotate(0 115.20001220703125 26.000015258789062)"><path d="M13 0 M13 0 C80.6 -0.28, 151.64 -2.37, 217.4 0 M13 0 C73.74 -0.87, 135.23 -0.09, 217.4 0 M217.4 0 C225.63 -0.68, 231.91 6.28, 230.4 13 M217.4 0 C223.83 -1.56, 230.62 6.42, 230.4 13 M230.4 13 C230.1 20.72, 231.32 27.66, 230.4 39 M230.4 13 C230.44 21.37, 231.33 30.78, 230.4 39 M230.4 39 C229.47 48.23, 225.95 53.08, 217.4 52 M230.4 39 C231.19 47.45, 224.25 53.93, 217.4 52 M217.4 52 C151.88 52.06, 85.64 51.1, 13 52 M217.4 52 C161.23 51.25, 103.23 51.35, 13 52 M13 52 C3.73 52.63, -0.55 47.43, 0 39 M13 52 C3.24 51.91, 0.49 49, 0 39 M0 39 C0.61 33.49, -1.02 29.36, 0 13 M0 39 C0.13 34.3, -0.81 28.02, 0 13 M0 13 C-0.46 3.66, 4.76 -0.49, 13 0 M0 13 C-0.38 3.28, 4.56 -0.18, 13 0" stroke="#1e1e1e" stroke-width="1" fill="none"></path></g><g transform="translate(102.93004608154297 199.0999984741211) rotate(0 76.26993560791016 12.5)"><text x="76.26993560791016" y="0" font-family="Virgil, Segoe UI Emoji" font-size="20px" fill="#1e1e1e" text-anchor="middle" style="white-space: pre;" direction="ltr" dominant-baseline="text-before-edge">Log Producer 2</text></g><g stroke-linecap="round" transform="translate(63.999969482421875 327.7999954223633) rotate(0 115.20001220703125 26.000015258789062)"><path d="M13 0 M13 0 C66.69 0.26, 117.1 2.84, 217.4 0 M13 0 C86.07 -0.45, 159.68 -0.06, 217.4 0 M217.4 0 C225.61 -0.02, 231.07 4.75, 230.4 13 M217.4 0 C226.69 0.78, 229.41 4.02, 230.4 13 M230.4 13 C228.99 22.42, 229.9 29.27, 230.4 39 M230.4 13 C230.09 17.95, 230.44 23.54, 230.4 39 M230.4 39 C228.92 46.29, 227.26 50.29, 217.4 52 M230.4 39 C231.12 46.53, 228.11 51.21, 217.4 52 M217.4 52 C175.82 51.77, 133.75 51.76, 13 52 M217.4 52 C153.61 51.67, 88.26 51.98, 13 52 M13 52 C5.68 52.64, -1.75 47.03, 0 39 M13 52 C2.12 52.45, 1.66 49.01, 0 39 M0 39 C1.28 30.14, 0.24 19.97, 0 13 M0 39 C-0.4 33.42, -0.45 26.59, 0 13 M0 13 C1.82 2.34, 4.18 1.45, 13 0 M0 13 C0.01 6.14, 5.7 -2.12, 13 0" stroke="#1e1e1e" stroke-width="1" fill="none"></path></g><g transform="translate(103.61004638671875 341.30001068115234) rotate(0 75.58993530273438 12.5)"><text x="75.58993530273438" y="0" font-family="Virgil, Segoe UI Emoji" font-size="20px" fill="#1e1e1e" text-anchor="middle" style="white-space: pre;" direction="ltr" dominant-baseline="text-before-edge">Log Producer N</text></g><g transform="translate(118.60427856445312 10) rotate(0 59.029945373535156 12.5)"><text x="0" y="0" font-family="Virgil, Segoe UI Emoji" font-size="20px" fill="#1e1e1e" text-anchor="start" style="white-space: pre;" direction="ltr" dominant-baseline="text-before-edge">log frontend</text></g><g stroke-linecap="round" transform="translate(426.00006103515625 52.40003204345703) rotate(0 280.4000244140625 179.1999969482422)"><path d="M32 0 M32 0 C220.95 0.85, 411.98 1.16, 528.8 0 M528.8 0 C552.06 -1.52, 560.46 12.66, 560.8 32 M560.8 32 C562.5 144.39, 562.37 258.15, 560.8 326.4 M560.8 326.4 C562.56 349.48, 548.52 358.06, 528.8 358.4 M528.8 358.4 C340.37 356.93, 152.79 357.14, 32 358.4 M32 358.4 C8.94 356.76, -1.74 348.92, 0 326.4 M0 326.4 C-1.45 247.69, -0.83 171.51, 0 32 M0 32 C-1.68 12.49, 10.57 -1.85, 32 0" stroke="#1e1e1e" stroke-width="1.5" fill="none" stroke-dasharray="8 9"></path></g><g stroke-linecap="round"><g transform="translate(300.4000244140625 122.80000305175781) rotate(0 83.93782148556681 -0.26784733012317474)"><path d="M0.79 0.01 C28.65 -0.14, 139.22 -0.46, 167.09 -0.55" stroke="#1e1e1e" stroke-width="1.5" fill="none" stroke-dasharray="8 9"></path></g><g transform="translate(300.4000244140625 122.80000305175781) rotate(0 83.93782148556681 -0.26784733012317474)"><path d="M168.42 0.57 L153.12 4.22 L153.89 -6.35 L167.35 -0.48" stroke="none" stroke-width="0" fill="#1e1e1e" fill-rule="evenodd"></path><path d="M167.1 -1.69 C162.46 1.4, 158.57 4.66, 154.99 5.17 M154 6.86 C152.72 2.84, 152.89 -2, 152.28 -5.93 M152.33 -6.55 C156.79 -4.7, 163.06 -2.12, 166.02 0.57 M167.09 -0.55 C167.09 -0.55, 167.09 -0.55, 167.09 -0.55" stroke="#1e1e1e" stroke-width="1.5" fill="none"></path></g></g><mask></mask><g stroke-linecap="round"><g transform="translate(300.4000244140625 209.2000274658203) rotate(0 83.94955008601835 0.18381254085704768)"><path d="M-0.44 0.59 C27.51 0.75, 140.01 -0.26, 168.34 -0.24" stroke="#1e1e1e" stroke-width="1.5" fill="none" stroke-dasharray="8 9"></path></g><g transform="translate(300.4000244140625 209.2000274658203) rotate(0 83.94955008601835 0.18381254085704768)"><path d="M167.36 1.36 L154.84 6.23 L156.24 -8.26 L168.43 -0.01" stroke="none" stroke-width="0" fill="#1e1e1e" fill-rule="evenodd"></path><path d="M169.08 -0.79 C162.47 2.91, 158.9 4.01, 155.19 5.35 M153.86 6.73 C155.3 3.05, 153.95 -0.84, 154.48 -7.53 M155.87 -6.4 C158.4 -5.77, 160.53 -4.3, 167.59 -0.65 M168.34 -0.24 C168.34 -0.24, 168.34 -0.24, 168.34 -0.24" stroke="#1e1e1e" stroke-width="1.5" fill="none"></path></g></g><mask></mask><g stroke-linecap="round"><g transform="translate(300.4000244140625 354.6000518798828) rotate(0 83.92710904553536 1.0404909099561337)"><path d="M-0.82 0.86 C27.39 1.02, 140.52 1.43, 168.67 1.09" stroke="#1e1e1e" stroke-width="1.5" fill="none" stroke-dasharray="8 9"></path></g><g transform="translate(300.4000244140625 354.6000518798828) rotate(0 83.92710904553536 1.0404909099561337)"><path d="M167.59 1.97 L155.66 6.07 L156.82 -5.64 L167.37 0.78" stroke="none" stroke-width="0" fill="#1e1e1e" fill-rule="evenodd"></path><path d="M169.75 0.93 C166.61 1.75, 160.36 5.38, 155.95 6.4 M155.95 8.54 C153.87 3.93, 154.32 1.49, 156.11 -5.87 M154.14 -6.28 C159.53 -3.12, 163.19 -1, 168.69 2.22 M168.67 1.09 C168.67 1.09, 168.67 1.09, 168.67 1.09" stroke="#1e1e1e" stroke-width="1.5" fill="none"></path></g></g><mask></mask><g stroke-linecap="round" transform="translate(487.9570741551238 87.68426512656595) rotate(0 30.328633679539507 26.463209352540957)"><path d="M30.73 -0.69 C36.93 -0.81, 45.73 3.5, 50.49 7.3 C55.25 11.1, 58.44 16.52, 59.3 22.11 C60.15 27.69, 58.87 35.81, 55.62 40.79 C52.37 45.77, 45.9 50.28, 39.82 51.97 C33.73 53.66, 25.09 53.04, 19.09 50.92 C13.09 48.81, 6.86 44.07, 3.81 39.28 C0.75 34.49, -0.53 27.58, 0.77 22.19 C2.06 16.8, 5.85 10.52, 11.56 6.94 C17.27 3.35, 30.07 1.53, 35.03 0.67 C40 -0.19, 41.44 1.26, 41.35 1.79 M22.32 -0.49 C28.27 -1.97, 37.58 0.73, 43.51 3.28 C49.43 5.83, 55.39 9.5, 57.88 14.79 C60.38 20.08, 60.24 29.38, 58.47 35 C56.7 40.62, 52.27 45.3, 47.26 48.5 C42.25 51.69, 35.06 54.89, 28.39 54.17 C21.72 53.45, 12 48.44, 7.25 44.18 C2.51 39.93, -0.01 34.4, -0.1 28.64 C-0.19 22.88, 3.14 14.18, 6.7 9.63 C10.26 5.07, 18.73 2.82, 21.27 1.33 C23.81 -0.17, 21.42 0.41, 21.94 0.67" stroke="#1e1e1e" stroke-width="2" fill="none"></path></g><g stroke-linecap="round" transform="translate(471.60003662109375 73.41195358018626) rotate(0 46.68567121356966 40.73552089892061)"><path d="M46.58 0.97 C54.39 0.43, 63.58 2.34, 70.49 6.22 C77.41 10.1, 84.42 17.53, 88.06 24.26 C91.7 30.99, 93.38 39.53, 92.33 46.6 C91.27 53.67, 87.06 61.22, 81.72 66.7 C76.37 72.17, 68.16 77.15, 60.26 79.45 C52.37 81.75, 42.34 82.29, 34.35 80.5 C26.36 78.7, 18.11 74.22, 12.32 68.68 C6.53 63.13, 0.94 54.71, -0.39 47.24 C-1.72 39.76, 0.95 30.44, 4.35 23.81 C7.75 17.19, 12.05 11.46, 20.02 7.51 C27.99 3.56, 45.75 1.04, 52.18 0.12 C58.61 -0.8, 58.75 1.26, 58.59 1.98 M56.38 2.56 C64.28 3.77, 73.89 7.43, 80.07 12.7 C86.25 17.97, 92.02 27.17, 93.46 34.2 C94.89 41.22, 91.96 48.24, 88.68 54.86 C85.39 61.48, 80.17 69.72, 73.76 73.9 C67.35 78.08, 58.81 79.5, 50.2 79.95 C41.58 80.4, 29.71 80.11, 22.07 76.6 C14.43 73.09, 7.85 65.58, 4.34 58.9 C0.84 52.23, -0.1 43.54, 1.06 36.54 C2.21 29.54, 6.4 22.58, 11.28 16.9 C16.16 11.23, 22.46 5.22, 30.36 2.49 C38.27 -0.24, 54 0.66, 58.71 0.54 C63.42 0.41, 59.08 0.99, 58.62 1.74" stroke="#1e1e1e" stroke-width="2" fill="none"></path></g><g stroke-linecap="round"><g transform="translate(516.7956974130338 72.81728338459288) rotate(0 -0.02523180604919162 6.438209309447771)"><path d="M-0.03 0.18 C-0.17 2.39, -1.02 11.69, -0.82 13.65 M-1.5 -0.78 C-1.27 1.05, 1.04 9.59, 1.45 11.83" stroke="#1e1e1e" stroke-width="2" fill="none"></path></g></g><mask></mask><g stroke-linecap="round"><g transform="translate(534.0414053078082 91.84700186614725) rotate(0 2.0558178956966913 -7.330369345595429)"><path d="M-0.82 0.57 C0 -2, 4.17 -12.62, 4.94 -15.23 M0.94 -0.17 C1.72 -2.65, 4.25 -11.93, 4.6 -14.29" stroke="#1e1e1e" stroke-width="2" fill="none"></path></g></g><mask></mask><g stroke-linecap="round"><g transform="translate(545.9349907013866 100.76719091133111) rotate(0 5.221209891354761 -5.714503534722979)"><path d="M1.16 -1.13 C2.99 -3.28, 8.46 -10.49, 10.13 -12.32 M0.31 0.89 C2.05 -1.2, 7.42 -9.3, 9.2 -11.31" stroke="#1e1e1e" stroke-width="2" fill="none"></path></g></g><mask></mask><g stroke-linecap="round"><g transform="translate(549.5030572453747 115.63417265330418) rotate(0 7.562915691382045 0.053975100077138904)"><path d="M0.03 -1.02 C2.59 -0.96, 13.86 -0.82, 16.55 -0.78 M-1.42 1.06 C0.98 1.36, 13.31 0.5, 16.17 0.35" stroke="#1e1e1e" stroke-width="2" fill="none"></path></g></g><mask></mask><g stroke-linecap="round"><g transform="translate(548.3136714837601 125.7437020896748) rotate(0 4.896870571277304 4.858841432019176)"><path d="M1.08 -0.78 C2.68 0.95, 8.36 7.57, 9.6 9.35 M0.2 1.43 C1.69 3.38, 7.78 8.87, 9.01 10.5" stroke="#1e1e1e" stroke-width="2" fill="none"></path></g></g><mask></mask><g stroke-linecap="round"><g transform="translate(534.0414053078082 137.6372874832532) rotate(0 3.4534634714362937 4.433730640092705)"><path d="M0.68 -0.76 C1.72 0.74, 6.2 6.6, 7.33 8.17 M-0.42 1.46 C0.33 3.21, 5.01 8.18, 6.17 9.62" stroke="#1e1e1e" stroke-width="2" fill="none"></path></g></g><mask></mask><g stroke-linecap="round"><g transform="translate(521.5531043482088 139.421343440461) rotate(0 0.4134108039553439 8.4343626259691)"><path d="M-0.4 -0.16 C-0.46 2.99, 0.05 15.05, 0.32 18.15 M1.59 -1.29 C1.29 1.55, -0.64 13.24, -0.77 16.2" stroke="#1e1e1e" stroke-width="2" fill="none"></path></g></g><mask></mask><g stroke-linecap="round"><g transform="translate(509.064848759037 140.01601363605437) rotate(0 -4.141810678024854 5.092218779458676)"><path d="M-0.27 0.31 C-1.78 2.13, -8 9.31, -9.46 10.75 M1.79 -0.57 C0.21 0.92, -8.23 7.26, -10.07 8.96" stroke="#1e1e1e" stroke-width="2" fill="none"></path></g></g><mask></mask><g stroke-linecap="round"><g transform="translate(492.41385643028366 131.09582459087062) rotate(0 -6.179532671059064 1.650817091052886)"><path d="M0.65 0.64 C-1.41 0.99, -10.27 1.87, -12.62 2.43 M-0.47 -0.07 C-2.57 0.36, -10.74 3.04, -13.01 3.37" stroke="#1e1e1e" stroke-width="2" fill="none"></path></g></g><mask></mask><g stroke-linecap="round"><g transform="translate(487.6564041246811 116.22884284889756) rotate(0 -6.593181286836511 -2.0667578844889363)"><path d="M1.06 -1.14 C-1.28 -1.77, -10.88 -2.53, -13.43 -3.12 M0.16 0.88 C-2.38 -0.17, -11.67 -4.2, -14.25 -5.01" stroke="#1e1e1e" stroke-width="2" fill="none"></path></g></g><mask></mask><g stroke-linecap="round"><g transform="translate(493.6031968214704 97.19912436734307) rotate(0 -5.23185646778461 -3.9108502503092666)"><path d="M0.25 0.45 C-1.51 -0.74, -8.1 -6.9, -9.47 -8.27 M-1.08 -0.37 C-3.14 -1.35, -9.51 -6.26, -10.71 -7.32" stroke="#1e1e1e" stroke-width="2" fill="none"></path></g></g><mask></mask><g stroke-linecap="round"><g transform="translate(502.5233858666543 90.65766147496049) rotate(0 -2.068294507311748 -5.210545423012633)"><path d="M-0.55 -1.13 C-1.43 -3.09, -4.09 -9.65, -5.03 -11.31 M1.36 0.89 C0.38 -0.96, -4.08 -8.29, -5.49 -10.09" stroke="#1e1e1e" stroke-width="2" fill="none"></path></g></g><mask></mask><g stroke-linecap="round" transform="translate(487.9570741551238 180.4842529195347) rotate(0 30.328633679539507 26.463209352540957)"><path d="M28.29 -0.59 C34.29 -1.44, 41.57 0.41, 46.81 3.92 C52.05 7.44, 57.76 14.73, 59.73 20.5 C61.7 26.27, 61.42 33.61, 58.66 38.52 C55.9 43.43, 49.01 47.85, 43.15 49.97 C37.29 52.09, 29.9 52.62, 23.5 51.24 C17.09 49.86, 8.76 46.25, 4.71 41.69 C0.66 37.13, -1.39 29.65, -0.81 23.87 C-0.24 18.09, 2.24 11.13, 8.17 7.03 C14.11 2.94, 29.23 0.04, 34.79 -0.69 C40.35 -1.42, 41.54 2.2, 41.54 2.68 M36.11 1.28 C42.32 2.08, 52.18 5.73, 56.04 9.98 C59.9 14.23, 60.1 21.03, 59.28 26.79 C58.45 32.56, 55.32 40.08, 51.08 44.55 C46.85 49.02, 40.02 53.15, 33.87 53.62 C27.71 54.08, 19.6 50.51, 14.16 47.34 C8.73 44.17, 3.2 39.7, 1.27 34.59 C-0.66 29.47, -0.14 21.77, 2.56 16.66 C5.26 11.55, 11.65 6.43, 17.47 3.9 C23.28 1.37, 34.14 1.8, 37.45 1.49 C40.76 1.17, 37.4 1.76, 37.3 2" stroke="#1e1e1e" stroke-width="2" fill="none"></path></g><g stroke-linecap="round" transform="translate(471.60003662109375 166.211941373155) rotate(0 46.68567121356966 40.73552089892061)"><path d="M30.83 1.34 C38.1 -1.17, 49.65 0.09, 58.09 2.16 C66.53 4.23, 75.74 8.63, 81.47 13.73 C87.21 18.84, 90.94 25.89, 92.51 32.82 C94.07 39.75, 94.16 48.42, 90.86 55.3 C87.56 62.17, 79.91 69.75, 72.72 74.05 C65.52 78.34, 56.08 80.9, 47.71 81.08 C39.33 81.26, 29.53 78.93, 22.45 75.13 C15.37 71.32, 8.87 64.59, 5.23 58.23 C1.58 51.87, -0.33 44.24, 0.58 36.98 C1.5 29.71, 4.74 20.53, 10.71 14.63 C16.68 8.74, 31.45 3.97, 36.41 1.61 C41.36 -0.76, 40.25 -0.28, 40.42 0.46 M36.12 0.8 C44.04 -0.8, 55.49 1.23, 63.62 3.69 C71.75 6.15, 79.97 9.7, 84.91 15.57 C89.85 21.45, 92.84 31.29, 93.26 38.93 C93.68 46.57, 91.42 54.94, 87.41 61.43 C83.41 67.91, 76.67 74.39, 69.24 77.84 C61.81 81.29, 51.32 82.8, 42.83 82.11 C34.35 81.43, 24.97 78.42, 18.33 73.74 C11.69 69.05, 5.81 60.8, 3.02 53.98 C0.23 47.17, -0.28 40.02, 1.61 32.86 C3.5 25.69, 8.51 16.44, 14.36 10.97 C20.21 5.51, 32.9 1.81, 36.71 0.06 C40.52 -1.68, 37.05 -0.33, 37.21 0.5" stroke="#1e1e1e" stroke-width="2" fill="none"></path></g><g stroke-linecap="round"><g transform="translate(516.7956974130338 165.61727117756163) rotate(0 0.3014928402053556 6.645292449654278)"><path d="M-0.79 0.83 C-0.89 2.87, -0.8 10, -0.83 12.07 M1 0.21 C1.3 2.39, 1.38 10.67, 1.44 13.08" stroke="#1e1e1e" stroke-width="2" fill="none"></path></g></g><mask></mask><g stroke-linecap="round"><g transform="translate(534.0414053078082 184.646989659116) rotate(0 2.077250020012457 -6.437771594737029)"><path d="M-0.83 -1.01 C-0.24 -3.47, 1.83 -11.93, 2.79 -13.95 M0.93 1.07 C1.96 -1.25, 4.35 -9.66, 4.99 -12.33" stroke="#1e1e1e" stroke-width="2" fill="none"></path></g></g><mask></mask><g stroke-linecap="round"><g transform="translate(545.9349907013866 193.56717870429986) rotate(0 5.135172451655535 -5.894379284910741)"><path d="M-0.98 0.15 C1.03 -1.4, 9.22 -8.41, 11.25 -10.33 M0.7 -0.81 C2.73 -2.6, 9.18 -10.39, 10.91 -11.94" stroke="#1e1e1e" stroke-width="2" fill="none"></path></g></g><mask></mask><g stroke-linecap="round"><g transform="translate(549.5030572453747 208.43416044627293) rotate(0 8.435596847574061 0.6731747727595234)"><path d="M1.15 0.97 C4.07 0.93, 14.29 -0.11, 16.58 -0.08 M0.29 0.43 C3.24 0.58, 13.96 1.59, 16.22 1.41" stroke="#1e1e1e" stroke-width="2" fill="none"></path></g></g><mask></mask><g stroke-linecap="round"><g transform="translate(548.3136714837601 218.54368988264355) rotate(0 4.319463004167346 5.030761534909743)"><path d="M1.12 -0.08 C2.33 1.63, 7.25 9.7, 8.39 11.23 M0.25 -1.17 C1.15 0.15, 5.48 7.85, 7.16 9.7" stroke="#1e1e1e" stroke-width="2" fill="none"></path></g></g><mask></mask><g stroke-linecap="round"><g transform="translate(534.0414053078082 230.43727527622195) rotate(0 4.219406881181044 4.51222740562892)"><path d="M-0.53 1.13 C0.41 2.36, 5.39 6.32, 6.77 7.34 M1.39 0.67 C2.6 2.03, 8.05 7.14, 8.97 8.35" stroke="#1e1e1e" stroke-width="2" fill="none"></path></g></g><mask></mask><g stroke-linecap="round"><g transform="translate(521.5531043482088 232.22133123342974) rotate(0 -0.11524280197625103 8.349404795417087)"><path d="M-0.96 -0.99 C-0.78 1.61, 0.4 13.72, 0.58 16.73 M0.73 1.11 C0.8 4.33, -0.11 14.88, -0.37 17.69" stroke="#1e1e1e" stroke-width="2" fill="none"></path></g></g><mask></mask><g stroke-linecap="round"><g transform="translate(509.064848759037 232.81600142902312) rotate(0 -5.862458791118229 4.674192857633358)"><path d="M-0.01 -1.11 C-1.61 0.61, -8.7 7.43, -10.54 9.33 M-1.48 0.92 C-3.18 2.87, -10.52 8.66, -11.71 10.46" stroke="#1e1e1e" stroke-width="2" fill="none"></path></g></g><mask></mask><g stroke-linecap="round"><g transform="translate(492.41385643028366 223.89581238383937) rotate(0 -6.526283321222763 1.4924081947165746)"><path d="M-0.43 -0.78 C-2.86 0.03, -12.2 2.97, -14.6 3.77 M1.54 1.42 C-0.51 1.94, -10.02 1.67, -12.37 1.75" stroke="#1e1e1e" stroke-width="2" fill="none"></path></g></g><mask></mask><g stroke-linecap="round"><g transform="translate(487.6564041246811 209.0288306418663) rotate(0 -7.013969644448366 -2.431935396681098)"><path d="M-0.92 0.2 C-3.32 -0.2, -12.77 -2.64, -14.83 -3.16 M0.8 -0.74 C-1.21 -1.44, -10.28 -4.37, -12.72 -5.06" stroke="#1e1e1e" stroke-width="2" fill="none"></path></g></g><mask></mask><g stroke-linecap="round"><g transform="translate(493.6031968214704 189.99911216031182) rotate(0 -4.3857291560156 -3.92299242099088)"><path d="M-1.15 0.41 C-2.41 -0.7, -7.05 -5.31, -8.5 -6.48 M0.45 -0.42 C-0.85 -1.89, -7.92 -6.89, -9.22 -8.26" stroke="#1e1e1e" stroke-width="2" fill="none"></path></g></g><mask></mask><g stroke-linecap="round"><g transform="translate(502.5233858666543 183.45764926792924) rotate(0 -3.201421408541705 -5.667024473175843)"><path d="M0.42 0.66 C-0.52 -1.11, -5.87 -8.26, -6.83 -10.16 M-0.81 -0.05 C-1.28 -2.2, -3.75 -10.43, -4.58 -11.99" stroke="#1e1e1e" stroke-width="2" fill="none"></path></g></g><mask></mask><g stroke-linecap="round" transform="translate(487.9570741551238 325.8842468160191) rotate(0 30.328633679539507 26.463209352540957)"><path d="M17.78 2.47 C23.13 -0.03, 31.42 -0.88, 37.47 0.64 C43.52 2.15, 50.2 6.84, 54.1 11.55 C57.99 16.27, 61.32 23.34, 60.83 28.91 C60.33 34.49, 55.64 40.87, 51.12 45.02 C46.61 49.16, 40.15 53.36, 33.75 53.78 C27.35 54.2, 18.18 50.85, 12.71 47.53 C7.25 44.22, 2.78 39.15, 0.96 33.88 C-0.86 28.62, -2.29 21.56, 1.8 15.93 C5.9 10.3, 20.34 2.81, 25.53 0.1 C30.72 -2.61, 32.82 -0.85, 32.94 -0.31 M41.02 3.11 C46.85 4.71, 53.23 7.65, 56.28 12.43 C59.32 17.21, 60.43 25.94, 59.29 31.77 C58.14 37.61, 54.52 43.87, 49.4 47.43 C44.29 50.98, 35.17 53.16, 28.61 53.11 C22.04 53.06, 14.72 50.91, 10 47.11 C5.29 43.31, 1.41 35.91, 0.3 30.33 C-0.8 24.74, 0.13 18.33, 3.36 13.61 C6.6 8.9, 13.58 3.85, 19.71 2.04 C25.84 0.22, 36.6 2.77, 40.16 2.73 C43.72 2.69, 41.37 1.38, 41.08 1.8" stroke="#1e1e1e" stroke-width="2" fill="none"></path></g><g stroke-linecap="round" transform="translate(471.60003662109375 311.6119352696394) rotate(0 46.68567121356966 40.73552089892064)"><path d="M27.54 4.46 C34.48 0.8, 45.15 -1.04, 53.37 -0.31 C61.58 0.41, 70.55 4.06, 76.82 8.79 C83.1 13.52, 88.45 20.99, 91.01 28.06 C93.56 35.13, 94.28 44.04, 92.15 51.22 C90.02 58.4, 84.55 66.35, 78.24 71.15 C71.94 75.96, 62.65 79.05, 54.29 80.05 C45.93 81.05, 35.96 79.91, 28.07 77.17 C20.17 74.44, 11.54 69.51, 6.92 63.65 C2.29 57.79, 0.3 49.53, 0.32 42 C0.35 34.47, 1.48 25.05, 7.05 18.47 C12.61 11.89, 28.44 5.28, 33.71 2.5 C38.97 -0.28, 38.53 1.4, 38.64 1.79 M62.07 1.42 C70.01 2.98, 78.58 9.99, 83.87 15.96 C89.17 21.93, 93.02 29.98, 93.86 37.23 C94.71 44.47, 92.87 53.14, 88.97 59.46 C85.06 65.77, 77.58 71.37, 70.43 75.1 C63.27 78.84, 54.6 82.03, 46.04 81.88 C37.48 81.74, 26.18 78.77, 19.07 74.24 C11.96 69.71, 6.61 61.76, 3.37 54.7 C0.13 47.65, -1.72 39.1, -0.38 31.92 C0.95 24.74, 5.39 16.59, 11.36 11.63 C17.34 6.67, 26.85 3.75, 35.47 2.16 C44.08 0.57, 58.52 1.87, 63.03 2.12 C67.54 2.37, 62.8 3.22, 62.53 3.64" stroke="#1e1e1e" stroke-width="2" fill="none"></path></g><g stroke-linecap="round"><g transform="translate(516.7956974130338 311.017265074046) rotate(0 0.16211785936252454 6.062652185633965)"><path d="M0.5 -0.29 C0.81 2.02, 0.91 11.37, 1.02 13.62 M-0.69 -1.49 C-0.38 0.49, 0.33 9.09, 0.6 11.77" stroke="#1e1e1e" stroke-width="2" fill="none"></path></g></g><mask></mask><g stroke-linecap="round"><g transform="translate(534.0414053078082 330.0469835556004) rotate(0 2.0860862578891783 -6.643689677629936)"><path d="M0.29 -0.83 C0.8 -3.21, 2.36 -12.31, 2.92 -14.64 M-1.02 1.35 C-0.11 -0.85, 4.54 -10.86, 5.19 -13.38" stroke="#1e1e1e" stroke-width="2" fill="none"></path></g></g><mask></mask><g stroke-linecap="round"><g transform="translate(545.9349907013866 338.96717260078424) rotate(0 5.014237769008787 -5.655821300952596)"><path d="M0.27 -1.12 C1.58 -2.95, 7.29 -8.63, 8.96 -10.51 M-1.04 0.91 C0.52 -1.3, 9.28 -10.12, 11.07 -12.22" stroke="#1e1e1e" stroke-width="2" fill="none"></path></g></g><mask></mask><g stroke-linecap="round"><g transform="translate(549.5030572453747 353.8341543427573) rotate(0 7.771959979811527 0.02984634873456571)"><path d="M0.26 -0.88 C2.75 -0.81, 11.83 0.64, 14.43 0.6 M-1.06 1.27 C1.83 0.97, 13.87 -0.93, 16.6 -1.21" stroke="#1e1e1e" stroke-width="2" fill="none"></path></g></g><mask></mask><g stroke-linecap="round"><g transform="translate(548.3136714837601 363.9436837791279) rotate(0 5.002754788147513 5.188466038022227)"><path d="M0.79 0.86 C2.03 2.56, 6.68 7.6, 8.02 9.1 M-0.26 0.27 C1.31 2.18, 8.88 8.31, 10.26 10.11" stroke="#1e1e1e" stroke-width="2" fill="none"></path></g></g><mask></mask><g stroke-linecap="round"><g transform="translate(534.0414053078082 375.8372691727063) rotate(0 2.964771882591208 4.191594416222358)"><path d="M-0.17 0.78 C1.08 2.04, 6.29 5.86, 7.65 7.26 M-1.72 0.15 C-0.64 1.54, 5.15 7.04, 6.65 8.23" stroke="#1e1e1e" stroke-width="2" fill="none"></path></g></g><mask></mask><g stroke-linecap="round"><g transform="translate(521.5531043482088 377.6213251299141) rotate(0 1.0359072427884257 8.53858451304069)"><path d="M1.2 0.03 C1.41 2.92, 1.72 13.95, 1.7 16.99 M0.37 -1 C0.48 2.05, 1.31 15.21, 1.34 18.08" stroke="#1e1e1e" stroke-width="2" fill="none"></path></g></g><mask></mask><g stroke-linecap="round"><g transform="translate(509.064848759037 378.2159953255075) rotate(0 -4.967812680820998 4.784936360742904)"><path d="M0.86 -0.06 C-1.04 1.51, -8.86 7.87, -10.8 9.49 M-0.15 -1.13 C-1.7 0.57, -6.49 8.73, -8.45 10.7" stroke="#1e1e1e" stroke-width="2" fill="none"></path></g></g><mask></mask><g stroke-linecap="round"><g transform="translate(492.41385643028366 369.29580628032375) rotate(0 -7.530065736561596 1.7523521071230448)"><path d="M-1.17 -0.56 C-3.66 0.08, -12.24 2.3, -14.24 2.88 M0.42 1.77 C-2.34 2.64, -13.13 3.69, -15.48 4.06" stroke="#1e1e1e" stroke-width="2" fill="none"></path></g></g><mask></mask><g stroke-linecap="round"><g transform="translate(487.6564041246811 354.4288245383507) rotate(0 -6.28163134505553 -1.5674732248741634)"><path d="M-0.91 1.01 C-3.1 0.44, -10.72 -3.46, -12.86 -4.15 M0.82 0.5 C-1.49 0.14, -10.82 -1.96, -13.38 -2.92" stroke="#1e1e1e" stroke-width="2" fill="none"></path></g></g><mask></mask><g stroke-linecap="round"><g transform="translate(493.6031968214704 335.3991060567962) rotate(0 -4.709193855431181 -3.8419847126658624)"><path d="M0.69 0.03 C-1.09 -1.13, -8.44 -6.63, -10.11 -7.72 M-0.41 -0.99 C-1.89 -1.94, -6.37 -5.24, -8.02 -6.49" stroke="#1e1e1e" stroke-width="2" fill="none"></path></g></g><mask></mask><g stroke-linecap="round"><g transform="translate(502.5233858666543 328.8576431644136) rotate(0 -2.600389389493671 -5.933932301924074)"><path d="M-0.38 -0.24 C-1.37 -1.94, -5.8 -7.98, -6.82 -9.92 M1.62 -1.41 C1.08 -3.47, -3.03 -10, -4.56 -11.63" stroke="#1e1e1e" stroke-width="2" fill="none"></path></g></g><mask></mask><g transform="translate(585.0043640136719 10) rotate(0 55.64995574951172 12.5)"><text x="0" y="0" font-family="Virgil, Segoe UI Emoji" font-size="20px" fill="#1e1e1e" text-anchor="start" style="white-space: pre;" direction="ltr" dominant-baseline="text-before-edge">log backend</text></g><g stroke-linecap="round" transform="translate(635.60009765625 171.60003662109375) rotate(0 55.5999755859375 40)"><path d="M20 0 M20 0 C46.26 1.33, 72.24 0.66, 91.2 0 M20 0 C39.2 -0.55, 59.41 0.24, 91.2 0 M91.2 0 C105.77 1.72, 110.98 6.7, 111.2 20 M91.2 0 C104.29 1.52, 111.38 8.7, 111.2 20 M111.2 20 C110.49 32.72, 109.6 40.85, 111.2 60 M111.2 20 C111.83 32.33, 112.15 42.62, 111.2 60 M111.2 60 C109.97 72.71, 104.18 78.29, 91.2 80 M111.2 60 C112.95 74.18, 105.79 81.8, 91.2 80 M91.2 80 C65.5 82.15, 39.89 80.06, 20 80 M91.2 80 C64.04 79.05, 38.79 80.72, 20 80 M20 80 C6.45 80.01, -0.08 75.2, 0 60 M20 80 C8.23 82.18, 2.26 73.54, 0 60 M0 60 C0.74 46.89, -0.24 38.51, 0 20 M0 60 C-0.53 46.14, 0.17 29.71, 0 20 M0 20 C1.62 5.79, 6.7 1.15, 20 0 M0 20 C2.21 5.39, 8.68 0.34, 20 0" stroke="#1e1e1e" stroke-width="2" fill="none"></path></g><g transform="translate(648.7601165771484 199.10003662109375) rotate(0 42.43995666503906 12.5)"><text x="42.43995666503906" y="0" font-family="Virgil, Segoe UI Emoji" font-size="20px" fill="#1e1e1e" text-anchor="middle" style="white-space: pre;" direction="ltr" dominant-baseline="text-before-edge">consumer</text></g><g stroke-linecap="round"><g transform="translate(566.0001220703125 127.60003662109375) rotate(0 36.45793833062055 23.941157383471733)"><path d="M0.6 0.93 C12.56 8.92, 60.47 39.29, 72.32 46.96" stroke="#1e1e1e" stroke-width="2.5" fill="none" stroke-dasharray="8 10"></path></g><g transform="translate(566.0001220703125 127.60003662109375) rotate(0 36.45793833062055 23.941157383471733)"><path d="M73.96 46.43 L57.82 44.44 L64.14 34.77 L71.9 46.54" stroke="none" stroke-width="0" fill="#1e1e1e" fill-rule="evenodd"></path><path d="M73.47 47.35 C65.89 45.97, 60.72 44.58, 57.3 46.05 M56.81 44.6 C61.07 40.09, 63.28 36.68, 64.15 34.79 M63.07 33.57 C67.23 37.93, 69.78 44.64, 73.05 47.43 M72.32 46.96 C72.32 46.96, 72.32 46.96, 72.32 46.96" stroke="#1e1e1e" stroke-width="2.5" fill="none"></path></g></g><mask></mask><g stroke-linecap="round"><g transform="translate(568.400146484375 213.20004272460938) rotate(0 34.61575998738408 1.3503388099372557)"><path d="M0.66 0.34 C12.03 0.79, 57.32 2.05, 68.58 2.36" stroke="#1e1e1e" stroke-width="2.5" fill="none" stroke-dasharray="8 10"></path></g><g transform="translate(568.400146484375 213.20004272460938) rotate(0 34.61575998738408 1.3503388099372557)"><path d="M68.2 1.52 L56.68 7.54 L54.57 -5.67 L69.38 2.12" stroke="none" stroke-width="0" fill="#1e1e1e" fill-rule="evenodd"></path><path d="M69 3.08 C64.98 4.66, 60.25 7.55, 55.39 8.88 M54.59 8.03 C55.61 3.37, 54.26 -1.62, 55.1 -5.22 M53.84 -4.24 C58.32 -1.77, 61.25 -1.56, 67.1 2.6 M68.58 2.36 C68.58 2.36, 68.58 2.36, 68.58 2.36" stroke="#1e1e1e" stroke-width="2.5" fill="none"></path></g></g><mask></mask><g stroke-linecap="round"><g transform="translate(566.800048828125 325.1999816894531) rotate(0 37.43432239815593 -39.21271234080194)"><path d="M0.5 -0.53 C13.05 -13.52, 62.09 -65.02, 74.36 -77.9" stroke="#1e1e1e" stroke-width="2.5" fill="none" stroke-dasharray="8 10"></path></g><g transform="translate(566.800048828125 325.1999816894531) rotate(0 37.43432239815593 -39.21271234080194)"><path d="M72.74 -76.62 L71.55 -63.4 L58.75 -72.87 L74.16 -79.28" stroke="none" stroke-width="0" fill="#1e1e1e" fill-rule="evenodd"></path><path d="M73.71 -77.95 C71.92 -75, 71 -70.18, 69.58 -62.9 M68.32 -64 C68.32 -66.01, 65.9 -67.45, 60.66 -72.16 M60.86 -70.98 C65.53 -74.7, 71.92 -75.91, 73.5 -78.79 M74.36 -77.9 C74.36 -77.9, 74.36 -77.9, 74.36 -77.9" stroke="#1e1e1e" stroke-width="2.5" fill="none"></path></g></g><mask></mask><g stroke-linecap="round" transform="translate(812.2000732421875 94.800048828125) rotate(0 71.60003662109375 21.600006103515625)"><path d="M10.8 0 M10.8 0 C43.24 0.97, 74.3 -0.32, 132.4 0 M132.4 0 C141.57 -0.04, 141.58 3.85, 143.2 10.8 M143.2 10.8 C142.53 18.47, 143.86 28.89, 143.2 32.4 M143.2 32.4 C142.66 41.13, 137.64 43.56, 132.4 43.2 M132.4 43.2 C101.21 42.09, 69.42 43.4, 10.8 43.2 M10.8 43.2 C3.4 41.95, -1.97 40.94, 0 32.4 M0 32.4 C-1.66 23.87, -1.06 17.85, 0 10.8 M0 10.8 C0.55 1.75, 4.42 0.88, 10.8 0" stroke="#1e1e1e" stroke-width="2.5" fill="none" stroke-dasharray="8 10"></path></g><g transform="translate(824.864143371582 106.40005493164062) rotate(0 58.93596649169922 10)"><text x="58.93596649169922" y="0" font-family="Virgil, Segoe UI Emoji" font-size="16px" fill="#1e1e1e" text-anchor="middle" style="white-space: pre;" direction="ltr" dominant-baseline="text-before-edge">console handler</text></g><g stroke-linecap="round" transform="translate(812.2000732421875 175.60003662109375) rotate(0 71.60003662109375 21.600006103515625)"><path d="M10.8 0 M10.8 0 C60.58 -0.19, 105.71 -0.63, 132.4 0 M132.4 0 C138.8 -1.57, 144.46 4.93, 143.2 10.8 M143.2 10.8 C142.13 17.17, 141.69 24.17, 143.2 32.4 M143.2 32.4 C145.05 38.23, 140.26 41.68, 132.4 43.2 M132.4 43.2 C107.23 41.34, 82.47 42.47, 10.8 43.2 M10.8 43.2 C4.96 42.28, -1.02 38.09, 0 32.4 M0 32.4 C0.8 27.78, 0.78 21.01, 0 10.8 M0 10.8 C1.86 2.3, 5.52 1.36, 10.8 0" stroke="#1e1e1e" stroke-width="2.5" fill="none" stroke-dasharray="8 10"></path></g><g transform="translate(840.1841430664062 187.20004272460938) rotate(0 43.615966796875 10)"><text x="43.615966796875" y="0" font-family="Virgil, Segoe UI Emoji" font-size="16px" fill="#1e1e1e" text-anchor="middle" style="white-space: pre;" direction="ltr" dominant-baseline="text-before-edge">file handler</text></g><g stroke-linecap="round" transform="translate(812.2000732421875 254.80001831054688) rotate(0 71.60003662109375 25)"><path d="M12.5 0 M12.5 0 C60.29 0.34, 105.41 -0.09, 130.7 0 M130.7 0 C138.55 -1.2, 143.69 3.77, 143.2 12.5 M143.2 12.5 C143.99 21.99, 144.6 29.98, 143.2 37.5 M143.2 37.5 C144.01 44.52, 140.1 48.73, 130.7 50 M130.7 50 C100.31 52.49, 67.91 51.59, 12.5 50 M12.5 50 C3.21 49.63, -1.45 46.95, 0 37.5 M0 37.5 C1.94 29.8, -1.62 19.79, 0 12.5 M0 12.5 C-0.64 3.58, 5.18 -0.73, 12.5 0" stroke="#1e1e1e" stroke-width="2.5" fill="none" stroke-dasharray="8 10"></path></g><g transform="translate(837.0561370849609 259.8000183105469) rotate(0 46.74397277832031 20)"><text x="46.74397277832031" y="0" font-family="Virgil, Segoe UI Emoji" font-size="16px" fill="#1e1e1e" text-anchor="middle" style="white-space: pre;" direction="ltr" dominant-baseline="text-before-edge">file rotate </text><text x="46.74397277832031" y="20" font-family="Virgil, Segoe UI Emoji" font-size="16px" fill="#1e1e1e" text-anchor="middle" style="white-space: pre;" direction="ltr" dominant-baseline="text-before-edge">handler</text></g><g transform="translate(177.2000732421875 228.10006713867188) rotate(0 3.83599853515625 17.5)"><text x="0" y="0" font-family="Virgil, Segoe UI Emoji" font-size="28px" fill="#1e1e1e" text-anchor="start" style="white-space: pre;" direction="ltr" dominant-baseline="text-before-edge">.</text></g><g transform="translate(177.2000732421875 248.90005493164062) rotate(0 3.83599853515625 17.5)"><text x="0" y="0" font-family="Virgil, Segoe UI Emoji" font-size="28px" fill="#1e1e1e" text-anchor="start" style="white-space: pre;" direction="ltr" dominant-baseline="text-before-edge">.</text></g><g transform="translate(177.2000732421875 269.7000427246094) rotate(0 3.83599853515625 17.5)"><text x="0" y="0" font-family="Virgil, Segoe UI Emoji" font-size="28px" fill="#1e1e1e" text-anchor="start" style="white-space: pre;" direction="ltr" dominant-baseline="text-before-edge">.</text></g><g transform="translate(177.2000732421875 286.5000915527344) rotate(0 3.83599853515625 17.5)"><text x="0" y="0" font-family="Virgil, Segoe UI Emoji" font-size="28px" fill="#1e1e1e" text-anchor="start" style="white-space: pre;" direction="ltr" dominant-baseline="text-before-edge">.</text></g><g transform="translate(879.964111328125 300.9000549316406) rotate(0 3.83599853515625 17.5)"><text x="0" y="0" font-family="Virgil, Segoe UI Emoji" font-size="28px" fill="#1e1e1e" text-anchor="start" style="white-space: pre;" direction="ltr" dominant-baseline="text-before-edge">.</text></g><g transform="translate(879.964111328125 321.7000427246094) rotate(0 3.83599853515625 17.5)"><text x="0" y="0" font-family="Virgil, Segoe UI Emoji" font-size="28px" fill="#1e1e1e" text-anchor="start" style="white-space: pre;" direction="ltr" dominant-baseline="text-before-edge">.</text></g><g transform="translate(879.964111328125 342.5000305175781) rotate(0 3.83599853515625 17.5)"><text x="0" y="0" font-family="Virgil, Segoe UI Emoji" font-size="28px" fill="#1e1e1e" text-anchor="start" style="white-space: pre;" direction="ltr" dominant-baseline="text-before-edge">.</text></g><g transform="translate(879.964111328125 359.3000793457031) rotate(0 3.83599853515625 17.5)"><text x="0" y="0" font-family="Virgil, Segoe UI Emoji" font-size="28px" fill="#1e1e1e" text-anchor="start" style="white-space: pre;" direction="ltr" dominant-baseline="text-before-edge">.</text></g><g stroke-linecap="round"><g transform="translate(747.60009765625 186.00009155273438) rotate(0 32.73091222718358 -28.535881621390587)"><path d="M1.09 -0.01 C11.82 -9.35, 54.06 -47.9, 64.37 -57.06" stroke="#1e1e1e" stroke-width="2.5" fill="none" stroke-dasharray="8 10"></path></g><g transform="translate(747.60009765625 186.00009155273438) rotate(0 32.73091222718358 -28.535881621390587)"><path d="M63.34 -57.44 L56.79 -44.38 L50.08 -53.18 L63.72 -56.93" stroke="none" stroke-width="0" fill="#1e1e1e" fill-rule="evenodd"></path><path d="M64.35 -56.6 C61.17 -54.19, 62.01 -48.85, 59.58 -42.11 M59.32 -43.42 C54.35 -47.08, 52.98 -51.19, 49.02 -52.53 M50.31 -52.6 C52.83 -54.91, 57.81 -53.83, 63.75 -56.89 M64.37 -57.06 C64.37 -57.06, 64.37 -57.06, 64.37 -57.06" stroke="#1e1e1e" stroke-width="2.5" fill="none"></path></g></g><mask></mask><g stroke-linecap="round"><g transform="translate(747.60009765625 216.40008544921875) rotate(0 33.66187888905404 -3.065652208775276)"><path d="M-0.73 0.22 C10.8 -0.83, 56.82 -5.14, 68.05 -6.35" stroke="#1e1e1e" stroke-width="2.5" fill="none" stroke-dasharray="8 10"></path></g><g transform="translate(747.60009765625 216.40008544921875) rotate(0 33.66187888905404 -3.065652208775276)"><path d="M67.95 -8.18 L55.65 1.78 L54.97 -10.35 L68.02 -5.28" stroke="none" stroke-width="0" fill="#1e1e1e" fill-rule="evenodd"></path><path d="M68.33 -5.29 C65.44 -5.52, 61.87 -4.58, 54.08 1.98 M56.23 1 C54.74 -1.56, 55.77 -4.73, 53.92 -11.11 M54.88 -11.83 C59.25 -9.13, 63.04 -8.69, 69.26 -4.86 M68.05 -6.35 C68.05 -6.35, 68.05 -6.35, 68.05 -6.35" stroke="#1e1e1e" stroke-width="2.5" fill="none"></path></g></g><mask></mask><g stroke-linecap="round"><g transform="translate(747.60009765625 235.60015869140625) rotate(0 33.70704690888522 15.050584404915554)"><path d="M0.72 -1.15 C11.96 4.18, 56.08 25.88, 66.7 31.25" stroke="#1e1e1e" stroke-width="2.5" fill="none" stroke-dasharray="8 10"></path></g><g transform="translate(747.60009765625 235.60015869140625) rotate(0 33.70704690888522 15.050584404915554)"><path d="M67.31 33.19 L50.41 29.31 L56.54 21.04 L65.31 32.08" stroke="none" stroke-width="0" fill="#1e1e1e" fill-rule="evenodd"></path><path d="M65.26 32.62 C62.23 29.78, 58.5 32.29, 50.48 32.21 M50.63 30.15 C53.47 27.88, 55.46 23.05, 56.96 18.89 M56.69 19.4 C61.38 22.89, 64.4 27.8, 66.31 30.47 M66.7 31.25 C66.7 31.25, 66.7 31.25, 66.7 31.25" stroke="#1e1e1e" stroke-width="2.5" fill="none"></path></g></g><mask></mask><g stroke-linecap="round"><g transform="translate(958.0001220703125 114.0001220703125) rotate(0 56.974157922714994 0.4024181962760167)"><path d="M0.67 0.94 C19.66 0.94, 94.45 -0.12, 113.28 -0.14" stroke="#1e1e1e" stroke-width="2.5" fill="none" stroke-dasharray="8 10"></path></g><g transform="translate(958.0001220703125 114.0001220703125) rotate(0 56.974157922714994 0.4024181962760167)"><path d="M114.82 0.98 L100.96 6.33 L99.85 -7.54 L114.13 0.61" stroke="none" stroke-width="0" fill="#1e1e1e" fill-rule="evenodd"></path><path d="M114.46 -0.53 C109.19 1.57, 107.1 2.18, 100.19 6.04 M99.23 7.58 C99.81 4.44, 100.23 0.21, 100.81 -5.39 M99.1 -4.96 C106.21 -3.03, 110.15 -1.89, 112.82 -0.66 M113.28 -0.14 C113.28 -0.14, 113.28 -0.14, 113.28 -0.14" stroke="#1e1e1e" stroke-width="2.5" fill="none"></path></g></g><mask></mask><g transform="translate(1086.0001220703125 100.60009765625) rotate(0 69.47992706298828 12.5)"><text x="0" y="0" font-family="Virgil, Segoe UI Emoji" font-size="20px" fill="#1e1e1e" text-anchor="start" style="white-space: pre;" direction="ltr" dominant-baseline="text-before-edge">stdout/stderr</text></g><g stroke-linecap="round"><g transform="translate(958.0001220703125 197.2001953125) rotate(0 57.314402765780756 0.02117484776834999)"><path d="M0.88 -0.84 C19.92 -0.68, 94.98 0.6, 113.75 0.88" stroke="#1e1e1e" stroke-width="2.5" fill="none" stroke-dasharray="8 10"></path></g><g transform="translate(958.0001220703125 197.2001953125) rotate(0 57.314402765780756 0.02117484776834999)"><path d="M114.67 1.83 L98.89 5.81 L100.31 -5.09 L115.52 0.33" stroke="none" stroke-width="0" fill="#1e1e1e" fill-rule="evenodd"></path><path d="M112.71 1.07 C110.58 2.47, 107.05 5.31, 100.29 6.28 M100.46 6.93 C99.84 3.55, 99.35 1.16, 100.71 -5.94 M100.85 -5.82 C102.29 -3.74, 107.91 -2.57, 113.35 1.45 M113.75 0.88 C113.75 0.88, 113.75 0.88, 113.75 0.88" stroke="#1e1e1e" stroke-width="2.5" fill="none"></path></g></g><mask></mask><g transform="translate(1086.0001220703125 182.20016479492188) rotate(0 31.859962463378906 12.5)"><text x="0" y="0" font-family="Virgil, Segoe UI Emoji" font-size="20px" fill="#1e1e1e" text-anchor="start" style="white-space: pre;" direction="ltr" dominant-baseline="text-before-edge">foo.log</text></g><g stroke-linecap="round"><g transform="translate(958.0001220703125 282.0001220703125) rotate(0 56.99229094311602 0.9500808114621293)"><path d="M-0.78 0.79 C18.3 1.02, 95.62 1.11, 114.77 1.11" stroke="#1e1e1e" stroke-width="2.5" fill="none" stroke-dasharray="8 10"></path></g><g transform="translate(958.0001220703125 282.0001220703125) rotate(0 56.99229094311602 0.9500808114621293)"><path d="M114.4 2.13 L101.13 6.24 L102.4 -4.67 L115.56 1.69" stroke="none" stroke-width="0" fill="#1e1e1e" fill-rule="evenodd"></path><path d="M115.76 2.57 C111.07 3.66, 106.33 6.2, 102.42 7.52 M100.87 7.25 C100.83 5.62, 101.62 3.05, 101.56 -5.12 M100.68 -6.71 C106.16 -2.45, 109.43 -1.46, 115.66 0.94 M114.77 1.11 C114.77 1.11, 114.77 1.11, 114.77 1.11" stroke="#1e1e1e" stroke-width="2.5" fill="none"></path></g></g><mask></mask><g transform="translate(1095.8601150512695 269.4001159667969) rotate(0 31.859962463378906 12.5)"><text x="0" y="0" font-family="Virgil, Segoe UI Emoji" font-size="20px" fill="#1e1e1e" text-anchor="start" style="white-space: pre;" direction="ltr" dominant-baseline="text-before-edge">foo.log</text></g><g transform="translate(1090.4101181030273 303.80010986328125) rotate(0 37.309959411621094 12.5)"><text x="0" y="0" font-family="Virgil, Segoe UI Emoji" font-size="20px" fill="#1e1e1e" text-anchor="start" style="white-space: pre;" direction="ltr" dominant-baseline="text-before-edge">foo.log.1</text></g><g transform="translate(1086.0001220703125 337.40008544921875) rotate(0 41.71995544433594 12.5)"><text x="0" y="0" font-family="Virgil, Segoe UI Emoji" font-size="20px" fill="#1e1e1e" text-anchor="start" style="white-space: pre;" direction="ltr" dominant-baseline="text-before-edge">foo.log.2</text></g><g transform="translate(1123.8840789794922 360.1000671386719) rotate(0 3.83599853515625 17.5)"><text x="0" y="0" font-family="Virgil, Segoe UI Emoji" font-size="28px" fill="#1e1e1e" text-anchor="start" style="white-space: pre;" direction="ltr" dominant-baseline="text-before-edge">.</text></g><g transform="translate(1123.8840789794922 380.9000549316406) rotate(0 3.83599853515625 17.5)"><text x="0" y="0" font-family="Virgil, Segoe UI Emoji" font-size="28px" fill="#1e1e1e" text-anchor="start" style="white-space: pre;" direction="ltr" dominant-baseline="text-before-edge">.</text></g><g transform="translate(1123.8840789794922 401.7000427246094) rotate(0 3.83599853515625 17.5)"><text x="0" y="0" font-family="Virgil, Segoe UI Emoji" font-size="28px" fill="#1e1e1e" text-anchor="start" style="white-space: pre;" direction="ltr" dominant-baseline="text-before-edge">.</text></g></svg>